<?xml version="1.0" standalone="no"?>
<!DOCTYPE svg PUBLIC "-//W3C//DTD SVG 20010904//EN"
 "http://www.w3.org/TR/2001/REC-SVG-20010904/DTD/svg10.dtd">
<svg version="1.0" xmlns="http://www.w3.org/2000/svg"
 width="300.000000pt" height="300.000000pt" viewBox="0 0 300.000000 300.000000"
 preserveAspectRatio="xMidYMid meet">
<metadata>
Created by potrace 1.14, written by Peter Selinger 2001-2017
</metadata>
<g transform="translate(0.000000,300.000000) scale(0.100000,-0.100000)"
fill="#000000" stroke="none">
<path d="M1321 2994 c-1 -5 -15 -9 -31 -8 -17 1 -32 -2 -35 -7 -3 -4 -12 -6
-20 -2 -8 3 -15 1 -15 -5 0 -5 -10 -9 -22 -9 -40 1 -108 -15 -108 -25 0 -6 -7
-7 -16 -4 -8 3 -28 -1 -44 -9 -16 -8 -38 -16 -48 -18 -10 -1 -32 -11 -47 -21
-15 -10 -25 -14 -22 -9 4 6 -26 -7 -66 -28 -40 -21 -87 -45 -104 -54 -18 -8
-33 -20 -33 -27 0 -6 -3 -8 -7 -5 -5 6 -69 -35 -117 -74 -94 -76 -196 -175
-196 -191 0 -5 -4 -6 -10 -3 -5 3 -10 2 -10 -3 0 -5 -11 -21 -25 -36 -13 -14
-21 -26 -17 -26 4 0 2 -4 -4 -8 -5 -4 -26 -29 -45 -57 -18 -27 -38 -53 -44
-57 -7 -5 -7 -8 0 -8 6 0 3 -5 -5 -10 -8 -5 -15 -13 -15 -17 0 -4 -10 -24 -21
-43 -12 -19 -25 -45 -29 -57 -3 -13 -11 -23 -17 -23 -6 0 -8 -3 -5 -6 3 -4 1
-16 -5 -28 -7 -11 -12 -24 -13 -28 0 -3 -3 -10 -7 -14 -5 -4 -8 -16 -8 -26 0
-10 -5 -18 -12 -18 -6 0 -9 -3 -5 -6 3 -4 0 -22 -8 -40 -8 -19 -11 -34 -7 -34
4 0 0 -5 -8 -10 -13 -9 -13 -10 0 -10 12 0 12 -2 2 -8 -7 -5 -15 -21 -17 -35
-3 -15 -7 -37 -10 -50 -20 -92 -24 -120 -19 -128 3 -5 1 -9 -4 -9 -5 0 -8 -10
-7 -22 1 -13 -2 -29 -8 -35 -6 -9 -5 -13 4 -13 9 0 10 -3 4 -8 -14 -10 -16
-94 -1 -85 8 5 8 3 0 -8 -11 -15 -11 -75 1 -174 10 -86 13 -107 20 -135 4 -14
8 -38 10 -55 1 -16 6 -29 11 -28 5 1 10 -17 11 -39 2 -22 7 -46 12 -52 5 -6
12 -23 14 -36 8 -41 19 -70 26 -70 4 0 8 -6 8 -12 0 -19 79 -176 108 -214 14
-18 25 -35 25 -39 0 -6 80 -112 120 -159 54 -62 192 -189 204 -187 3 0 17 -10
32 -23 51 -46 64 -56 64 -49 0 3 10 -2 22 -13 13 -11 41 -28 63 -39 22 -10 51
-27 65 -36 14 -9 34 -19 45 -21 11 -1 22 -6 25 -9 11 -13 122 -49 132 -43 7 4
8 2 4 -4 -4 -7 -1 -12 6 -13 7 0 22 -3 33 -5 11 -3 30 -6 42 -7 13 -1 23 -6
23 -11 0 -4 7 -6 15 -2 8 3 15 2 15 -3 0 -5 10 -7 23 -7 12 1 27 0 32 -3 15
-8 36 -12 83 -14 23 -1 42 -4 42 -7 0 -3 29 -5 65 -5 37 0 65 -4 65 -10 0 -7
3 -7 8 0 4 6 42 10 84 10 43 0 78 2 78 5 0 3 21 6 46 7 26 2 53 8 60 14 11 9
14 8 14 -1 0 -10 3 -10 15 0 8 7 15 10 15 7 0 -3 15 -1 33 4 17 6 39 12 47 14
8 2 16 4 18 5 1 2 5 3 10 4 4 1 23 6 42 10 19 5 41 12 50 17 15 8 39 16 53 17
4 1 27 13 52 27 25 13 45 21 45 17 0 -4 7 1 14 11 8 10 18 16 23 15 14 -4 193
112 193 125 0 6 3 8 6 4 4 -3 12 -1 19 6 7 7 32 28 56 47 54 45 150 140 141
140 -4 0 0 6 8 13 9 7 33 35 55 62 22 28 45 53 50 57 7 5 7 8 0 8 -5 0 -1 7 9
15 11 8 16 15 12 15 -4 0 -1 7 6 15 29 32 38 45 33 45 -4 0 3 13 14 28 11 16
21 35 23 43 2 8 5 16 9 19 8 8 39 77 39 89 0 6 5 11 12 11 6 0 8 3 5 7 -4 3
-2 12 4 20 6 7 8 13 4 13 -4 0 -2 7 5 15 7 8 9 15 5 15 -4 0 -2 7 5 15 7 8 10
22 6 30 -3 9 -2 14 3 11 7 -5 37 101 46 164 1 14 4 25 5 25 4 0 10 44 12 88 1
26 6 47 11 47 5 0 4 6 -2 13 -6 8 -8 17 -4 21 10 10 11 176 1 182 -4 3 -4 14
2 24 12 22 13 33 2 27 -4 -3 -8 18 -10 46 -2 28 -9 58 -15 66 -10 12 -9 13 3
6 13 -8 13 -7 1 8 -7 9 -11 17 -8 17 5 0 -7 54 -27 125 -2 6 -6 24 -11 40 -4
17 -10 35 -14 40 -3 6 -6 16 -7 23 -2 8 -6 21 -10 30 -4 9 -8 19 -9 22 -13 43
-81 168 -88 163 -6 -3 -7 -1 -4 4 6 10 -66 130 -106 179 -9 10 -29 36 -45 56
-16 21 -32 35 -36 31 -3 -3 -6 -1 -6 6 0 11 -22 34 -130 135 -14 13 -43 36
-65 52 -22 16 -43 33 -47 39 -4 5 -8 6 -8 2 0 -5 -7 -2 -15 7 -22 21 -188 114
-219 122 -14 3 -26 11 -26 17 0 6 -3 7 -7 4 -3 -4 -12 -2 -20 4 -7 6 -13 9
-13 6 0 -3 -12 0 -27 8 -15 8 -30 12 -35 9 -4 -3 -8 0 -8 7 0 7 -3 10 -6 7 -3
-4 -22 1 -42 9 -20 9 -49 15 -64 15 -16 0 -28 3 -28 7 0 4 -6 8 -12 8 -7 1
-29 3 -48 7 -19 3 -50 8 -68 10 -18 3 -37 8 -42 11 -6 3 -10 1 -10 -6 0 -8 -4
-8 -12 -2 -16 13 -300 14 -292 2 3 -5 1 -9 -5 -9 -5 0 -12 6 -14 13 -3 6 -6 7
-6 1z"/>
</g>
</svg>
